<?xml version="1.0" encoding="UTF-8" standalone="no"?>
<!DOCTYPE svg PUBLIC "-//W3C//DTD SVG 1.1//EN" "http://www.w3.org/Graphics/SVG/1.1/DTD/svg11.dtd">
<svg width="100%" height="100%" viewBox="0 0 1751 379" version="1.1" xmlns="http://www.w3.org/2000/svg" xmlns:xlink="http://www.w3.org/1999/xlink" xml:space="preserve" xmlns:serif="http://www.serif.com/" style="fill-rule:evenodd;clip-rule:evenodd;stroke-linejoin:round;stroke-miterlimit:2;">
    <g transform="matrix(1,0,0,1,-334.46,-1495.83)">
        <g id="Layer-1" serif:id="Layer 1" transform="matrix(4.16667,0,0,4.16667,0,0)">
            <g transform="matrix(1,0,0,1,156.626,442.159)">
                <path d="M0,-76.86C0.252,-77.531 0.378,-78.077 0.378,-78.498C0.378,-79.589 -0.378,-80.219 -1.89,-80.388C-3.402,-80.556 -5.922,-80.64 -9.45,-80.64L-9.45,-82.53L13.86,-82.53L13.86,-80.64C11.003,-80.64 8.757,-80.388 7.119,-79.884C5.481,-79.38 4.367,-78.372 3.78,-76.86L-27.09,6.3L-30.87,6.3L-65.52,-71.82C-66.276,-73.415 -67.579,-74.214 -69.426,-74.214C-71.611,-74.214 -73.92,-72.996 -76.356,-70.56C-76.356,-72.744 -75.832,-74.633 -74.781,-76.23C-73.731,-77.825 -72.387,-79.128 -70.749,-80.136C-69.111,-81.144 -67.284,-81.9 -65.268,-82.404C-63.252,-82.908 -61.236,-83.16 -59.22,-83.16C-56.869,-83.16 -54.81,-82.845 -53.046,-82.215C-51.282,-81.585 -49.75,-80.723 -48.447,-79.632C-47.146,-78.54 -46.033,-77.321 -45.108,-75.978C-44.185,-74.633 -43.429,-73.248 -42.84,-71.82L-20.538,-21.042L0,-76.86Z" style="fill:rgb(35,31,32);fill-rule:nonzero;"/>
            </g>
            <g transform="matrix(1,0,0,1,177.037,361.519)">
                <path d="M0,84.419C1.931,84.419 3.402,84.211 4.41,83.79C5.418,83.37 6.152,82.74 6.615,81.899C7.076,81.062 7.349,79.946 7.434,78.561C7.517,77.175 7.56,75.558 7.56,73.71L7.56,10.71C7.56,8.778 7.517,7.14 7.434,5.795C7.349,4.453 7.076,3.36 6.615,2.52C6.152,1.681 5.418,1.051 4.41,0.629C3.402,0.211 1.931,0 0,0L0,-1.891L67.41,-1.891L67.41,18.27L63.63,18.27C63.63,16.253 63.587,14.218 63.504,12.159C63.419,10.101 63.126,8.274 62.622,6.678C62.118,5.083 61.299,3.78 60.165,2.772C59.031,1.764 57.456,1.26 55.44,1.26L28.35,1.26L28.35,40.95L42.84,40.95C44.268,40.95 45.36,40.552 46.116,39.752C46.872,38.955 47.439,37.947 47.817,36.729C48.195,35.512 48.404,34.167 48.447,32.697C48.488,31.228 48.51,29.779 48.51,28.35L52.29,28.35L52.29,56.7L48.51,56.7C48.51,55.273 48.488,53.823 48.447,52.353C48.404,50.884 48.195,49.539 47.817,48.321C47.439,47.104 46.872,46.096 46.116,45.296C45.36,44.499 44.268,44.1 42.84,44.1L28.35,44.1L28.35,83.159L57.96,83.159C59.976,83.159 61.551,82.655 62.685,81.648C63.819,80.64 64.638,79.339 65.142,77.741C65.646,76.148 65.939,74.319 66.024,72.261C66.107,70.203 66.15,68.165 66.15,66.149L69.93,66.149L69.93,86.31L0,86.31L0,84.419Z" style="fill:rgb(35,31,32);fill-rule:nonzero;"/>
            </g>
            <g transform="matrix(1,0,0,1,258.936,361.519)">
                <path d="M0,84.419C1.931,84.419 3.402,84.231 4.41,83.853C5.418,83.475 6.152,82.845 6.615,81.962C7.076,81.081 7.349,79.968 7.434,78.624C7.517,77.28 7.56,75.644 7.56,73.71L7.56,10.71C7.56,8.778 7.517,7.14 7.434,5.795C7.349,4.453 7.076,3.36 6.615,2.52C6.152,1.681 5.418,1.051 4.41,0.629C3.402,0.211 1.931,0 0,0L0,-1.891L35.91,-1.891L35.91,0C34.062,0 32.612,0.211 31.563,0.629C30.512,1.051 29.756,1.681 29.295,2.52C28.832,3.36 28.559,4.453 28.476,5.795C28.392,7.14 28.35,8.778 28.35,10.71L28.35,83.159L55.44,83.159C57.456,83.159 59.031,82.655 60.165,81.648C61.299,80.64 62.118,79.339 62.622,77.741C63.126,76.148 63.419,74.319 63.504,72.261C63.587,70.203 63.63,68.165 63.63,66.149L67.41,66.149L67.41,86.31L0,86.31L0,84.419Z" style="fill:rgb(35,31,32);fill-rule:nonzero;"/>
            </g>
            <g transform="matrix(1,0,0,1,363.769,449.719)">
                <path d="M0,-90.091L0,-88.201C-1.849,-88.201 -3.298,-88.094 -4.348,-87.886C-5.398,-87.675 -6.154,-87.256 -6.615,-86.626C-7.078,-85.996 -7.352,-85.114 -7.435,-83.98C-7.52,-82.846 -7.561,-81.312 -7.561,-79.381L-7.561,-33.391C-7.561,-27.762 -7.119,-23.016 -6.237,-19.153C-5.355,-15.288 -4.117,-12.16 -2.521,-9.766C-0.926,-7.371 0.986,-5.67 3.213,-4.662C5.437,-3.654 7.853,-3.151 10.458,-3.151C13.648,-3.151 16.714,-3.844 19.655,-5.23C22.595,-6.615 25.178,-8.61 27.404,-11.215C29.629,-13.818 31.394,-16.988 32.696,-20.728C33.998,-24.465 34.649,-28.686 34.649,-33.391L34.649,-77.491C34.649,-80.011 34.606,-81.984 34.523,-83.413C34.438,-84.84 34.083,-85.911 33.452,-86.626C32.822,-87.339 31.814,-87.779 30.429,-87.949C29.043,-88.116 27.09,-88.201 24.569,-88.201L24.569,-90.091L48.51,-90.091L48.51,-88.201C45.989,-88.201 44.057,-88.116 42.714,-87.949C41.369,-87.779 40.383,-87.339 39.753,-86.626C39.123,-85.911 38.744,-84.84 38.618,-83.413C38.492,-81.984 38.43,-80.011 38.43,-77.491L38.43,-33.391C38.43,-22.889 35.51,-14.699 29.673,-8.82C23.833,-2.94 15.665,0 5.166,0C-0.044,0 -4.726,-0.757 -8.884,-2.269C-13.041,-3.781 -16.569,-5.987 -19.468,-8.884C-22.365,-11.781 -24.57,-15.288 -26.082,-19.404C-27.595,-23.52 -28.351,-28.181 -28.351,-33.391L-28.351,-79.381C-28.351,-81.312 -28.394,-82.846 -28.477,-83.98C-28.562,-85.114 -28.835,-85.996 -29.296,-86.626C-29.758,-87.256 -30.492,-87.675 -31.5,-87.886C-32.509,-88.094 -33.979,-88.201 -35.91,-88.201L-35.91,-90.091L0,-90.091Z" style="fill:rgb(35,31,32);fill-rule:nonzero;"/>
            </g>
            <g transform="matrix(1,0,0,1,454.11,409.4)">
                <path d="M0,-9.451C1.008,-9.451 2.331,-9.807 3.969,-10.522C5.606,-11.235 7.182,-12.327 8.693,-13.798C10.206,-15.267 11.507,-17.179 12.6,-19.531C13.69,-21.882 14.237,-24.697 14.237,-27.973C14.237,-31.249 13.69,-34.062 12.6,-36.415C11.507,-38.766 10.206,-40.699 8.693,-42.211C7.182,-43.723 5.606,-44.835 3.969,-45.55C2.331,-46.263 1.008,-46.621 0,-46.621L-6.931,-46.621L-6.931,-9.451L0,-9.451ZM-35.28,-49.771L0,-49.771C5.459,-49.771 10.395,-49.267 14.805,-48.259C19.215,-47.251 22.973,-45.822 26.082,-43.975C29.188,-42.126 31.562,-39.858 33.201,-37.171C34.839,-34.482 35.658,-31.416 35.658,-27.973C35.658,-22.429 33.557,-17.871 29.357,-14.302C25.156,-10.731 19.277,-8.358 11.718,-7.183C13.901,-6.175 15.665,-4.726 17.01,-2.836C18.353,-0.946 19.99,1.595 21.924,4.787C24.022,8.4 25.997,11.697 27.846,14.678C29.692,17.66 31.437,20.222 33.075,22.364C34.713,24.506 36.225,26.165 37.61,27.341C38.997,28.519 40.319,29.105 41.58,29.105C42.923,29.105 44.478,28.223 46.242,26.458C46.242,29.064 45.675,31.247 44.541,33.011C43.406,34.775 41.978,36.204 40.257,37.295C38.534,38.388 36.707,39.163 34.775,39.626C32.843,40.087 31.037,40.32 29.357,40.32C26.416,40.32 23.771,39.626 21.42,38.239C19.067,36.854 16.841,34.796 14.742,32.066C12.641,29.337 10.584,25.935 8.567,21.861C6.552,17.786 4.41,13.103 2.142,7.811C0.713,4.452 -0.548,1.658 -1.639,-0.568C-2.73,-2.793 -3.823,-4.704 -4.914,-6.301L-6.931,-6.301L-6.931,25.829C-6.931,27.677 -6.889,29.294 -6.805,30.68C-6.722,32.066 -6.448,33.181 -5.985,34.019C-5.524,34.86 -4.769,35.489 -3.717,35.909C-2.668,36.33 -1.219,36.538 0.63,36.538L0.63,38.429L-35.28,38.429L-35.28,36.538C-33.349,36.538 -31.878,36.33 -30.87,35.909C-29.862,35.489 -29.128,34.86 -28.665,34.019C-28.204,33.181 -27.931,32.066 -27.847,30.68C-27.764,29.294 -27.721,27.677 -27.721,25.829L-27.721,-37.171C-27.721,-39.102 -27.764,-40.741 -27.847,-42.085C-27.931,-43.428 -28.204,-44.52 -28.665,-45.361C-29.128,-46.2 -29.862,-46.83 -30.87,-47.251C-31.878,-47.67 -33.349,-47.881 -35.28,-47.881L-35.28,-49.771Z" style="fill:rgb(35,31,32);fill-rule:nonzero;"/>
            </g>
        </g>
    </g>
</svg>
